<?xml version="1.0" standalone="no"?>
<!DOCTYPE svg PUBLIC "-//W3C//DTD SVG 20010904//EN"
 "http://www.w3.org/TR/2001/REC-SVG-20010904/DTD/svg10.dtd">
<svg version="1.0" xmlns="http://www.w3.org/2000/svg"
 width="1500.000000pt" height="500.000000pt" viewBox="0 0 1500.000000 500.000000"
 preserveAspectRatio="xMidYMid meet">

<g transform="translate(0.000000,500.000000) scale(0.100000,-0.100000)"
fill="#000000" stroke="none">
<path d="M8200 2950 c0 -5 16 -10 35 -10 l35 0 0 -450 0 -450 -35 0 c-19 0
-35 -4 -35 -10 0 -6 67 -10 180 -10 113 0 180 4 180 10 0 6 -13 10 -30 10
l-30 0 0 146 c0 126 2 145 16 142 8 -2 45 -66 84 -145 l69 -143 -30 0 c-16 0
-29 -4 -29 -10 0 -6 65 -10 175 -10 110 0 175 4 175 10 0 6 -11 10 -24 10 -21
0 -36 26 -130 209 -58 115 -106 213 -105 217 0 5 31 35 69 67 61 51 73 57 114
57 34 0 46 4 46 15 0 13 -20 15 -120 15 -98 0 -120 -3 -120 -14 0 -11 15 -16
52 -18 l52 -3 -129 -108 c-72 -60 -138 -113 -147 -118 -17 -9 -18 8 -18 296
l0 305 -150 0 c-93 0 -150 -4 -150 -10z"/>
<path d="M5106 2892 c-4 -8 -261 -693 -308 -824 -8 -22 -16 -28 -39 -28 -16 0
-29 -4 -29 -10 0 -6 38 -10 95 -10 57 0 95 4 95 10 0 6 -21 10 -46 10 -53 0
-53 -17 8 158 l40 112 127 0 127 0 42 -128 c23 -70 42 -131 42 -135 0 -4 -18
-7 -40 -7 -22 0 -40 -4 -40 -10 0 -6 73 -10 200 -10 117 0 200 4 200 9 0 5
-12 11 -27 13 -26 3 -33 20 -183 428 l-156 425 -51 3 c-28 2 -54 -1 -57 -6z
m4 -388 c28 -81 50 -152 50 -156 0 -4 -49 -8 -110 -8 -60 0 -110 4 -110 9 0 5
23 72 50 148 28 76 53 144 55 152 3 8 8 12 10 9 3 -3 28 -72 55 -154z"/>
<path d="M5854 2620 c-103 -22 -177 -78 -215 -163 -19 -43 -23 -69 -23 -147
-1 -84 3 -102 27 -153 53 -108 143 -153 291 -145 133 7 205 59 237 170 12 44
-16 35 -30 -9 -30 -98 -138 -151 -221 -108 -51 26 -65 86 -64 270 0 141 3 166
22 208 23 51 56 72 98 61 49 -13 56 -104 8 -104 -21 0 -24 -5 -24 -35 0 -56
24 -92 69 -106 48 -14 85 -6 117 26 20 20 24 34 24 84 0 71 -26 109 -92 136
-50 20 -166 28 -224 15z"/>
<path d="M7163 2620 c-116 -23 -176 -106 -140 -192 27 -64 126 -76 181 -21 33
33 38 102 6 110 -40 11 -37 78 5 89 69 17 85 -14 85 -172 l0 -121 -99 -5
c-164 -8 -230 -58 -218 -166 9 -85 70 -132 170 -132 71 0 123 21 139 54 14 31
24 33 33 5 16 -51 168 -78 241 -43 19 9 42 30 50 46 20 39 31 128 15 128 -6 0
-11 -14 -11 -30 0 -41 -26 -100 -43 -100 -30 0 -35 28 -39 220 -4 209 -11 243
-59 287 -48 44 -203 65 -316 43z m137 -417 c0 -94 -13 -135 -44 -141 -28 -6
-36 15 -36 99 0 62 4 81 21 103 11 14 29 26 40 26 17 0 19 -8 19 -87z"/>
<path d="M7830 2619 c-103 -31 -160 -133 -139 -246 15 -80 82 -129 230 -167
97 -25 129 -48 129 -89 0 -42 -25 -66 -81 -78 -103 -24 -207 33 -250 136 -12
30 -26 55 -31 55 -4 0 -8 -49 -8 -110 0 -60 4 -110 8 -110 5 0 17 9 27 20 23
25 37 25 103 0 59 -23 145 -26 205 -8 153 46 188 274 55 361 -24 15 -74 37
-113 48 -117 34 -137 43 -157 70 -16 21 -17 30 -8 51 16 34 49 48 112 48 65 0
124 -33 158 -89 51 -84 49 -84 50 23 l0 99 -25 -23 c-25 -24 -25 -24 -74 -6
-62 22 -146 28 -191 15z"/>
<path d="M9224 2620 c-93 -19 -171 -76 -209 -151 -22 -42 -33 -140 -23 -209
22 -163 131 -250 312 -250 141 0 216 44 261 153 12 28 12 37 3 37 -7 0 -21
-20 -32 -45 -28 -68 -73 -99 -155 -103 -55 -3 -70 -1 -93 17 -33 26 -54 92
-63 194 l-7 77 181 0 181 0 0 33 c-1 54 -20 120 -46 160 -47 72 -192 112 -310
87z m117 -41 c5 -10 12 -61 16 -114 l6 -95 -66 0 -67 0 0 79 c0 43 5 93 11
110 18 50 77 62 100 20z"/>
<path d="M6207 2614 c-12 -12 4 -24 34 -24 l29 0 0 -195 c0 -106 5 -217 11
-245 20 -95 81 -140 188 -140 76 0 106 12 147 57 34 37 34 37 34 11 0 -58 1
-58 151 -58 80 0 139 4 139 9 0 6 -15 11 -32 13 l-33 3 -3 288 -2 288 -143 -3
c-86 -2 -142 -7 -142 -13 0 -5 12 -11 28 -13 l27 -3 0 -215 c0 -234 -6 -268
-54 -299 -24 -16 -28 -16 -51 -1 l-25 16 -2 263 -3 262 -146 3 c-80 1 -148 0
-152 -4z"/>
<path d="M9620 2606 c0 -8 12 -16 26 -18 25 -3 33 -20 131 -285 l105 -283 54
0 c30 0 54 -2 54 -3 0 -16 -45 -129 -71 -178 -41 -76 -71 -101 -118 -97 -31 3
-36 7 -39 31 -3 23 0 27 21 27 29 0 41 37 25 82 -13 36 -35 48 -90 48 -55 0
-84 -20 -99 -69 -24 -81 44 -151 149 -151 88 0 139 35 187 130 14 26 265 735
265 747 0 1 15 3 33 5 63 6 26 23 -58 26 -71 2 -85 0 -85 -13 0 -11 11 -15 41
-15 29 0 40 -4 37 -12 -3 -7 -34 -97 -69 -200 -35 -104 -66 -188 -69 -188 -3
0 -35 90 -72 199 l-66 200 31 3 c17 2 32 9 35 16 3 9 -37 12 -177 12 -151 0
-181 -2 -181 -14z"/>
<path d="M6100 755 c0 -97 1 -105 19 -105 16 0 20 8 23 42 2 31 8 44 21 46 14
3 17 -4 17 -42 0 -42 2 -46 25 -46 22 0 25 4 25 34 0 72 -33 112 -71 87 -18
-10 -19 -7 -19 39 0 43 -3 50 -20 50 -19 0 -20 -7 -20 -105z"/>
<path d="M6956 852 c-4 -7 -26 -61 -87 -214 -18 -46 -18 -48 -1 -48 13 0 31
32 70 128 29 70 52 131 52 135 0 9 -28 9 -34 -1z"/>
<path d="M7058 742 c-66 -164 -63 -152 -42 -152 18 0 43 54 122 261 2 5 -5 9
-15 9 -14 0 -29 -28 -65 -118z"/>
<path d="M7980 755 c0 -98 1 -105 20 -105 15 0 20 7 20 28 l1 27 20 -27 c13
-18 30 -28 45 -28 l25 0 -27 35 -27 36 22 22 c26 29 27 37 2 37 -11 0 -29 -12
-40 -26 l-21 -27 0 67 c0 59 -2 66 -20 66 -19 0 -20 -7 -20 -105z"/>
<path d="M6270 800 c0 -11 -4 -20 -10 -20 -5 0 -10 -9 -10 -20 0 -11 5 -20 10
-20 6 0 10 -20 10 -45 0 -38 3 -45 20 -45 17 0 20 7 20 45 0 25 5 45 10 45 6
0 10 9 10 20 0 11 -4 20 -10 20 -5 0 -10 9 -10 20 0 13 -7 20 -20 20 -13 0
-20 -7 -20 -20z"/>
<path d="M6370 800 c0 -11 -4 -20 -10 -20 -5 0 -10 -9 -10 -20 0 -11 5 -20 10
-20 6 0 10 -20 10 -45 0 -38 3 -45 20 -45 17 0 20 7 20 45 0 25 5 45 10 45 6
0 10 9 10 20 0 11 -4 20 -10 20 -5 0 -10 9 -10 20 0 13 -7 20 -20 20 -13 0
-20 -7 -20 -20z"/>
<path d="M6791 791 c-17 -11 -7 -41 13 -41 22 0 30 20 15 36 -9 8 -19 10 -28
5z"/>
<path d="M6460 679 c0 -92 1 -99 20 -99 17 0 20 7 20 38 0 37 1 38 30 34 57
-8 91 55 56 103 -10 15 -28 20 -70 21 l-56 2 0 -99z m96 46 c7 -18 -13 -45
-33 -45 -17 0 -27 24 -19 45 7 20 45 19 52 0z"/>
<path d="M6648 769 c-10 -5 -18 -19 -18 -30 0 -11 8 -22 18 -25 9 -3 28 -11
42 -17 21 -9 22 -11 7 -15 -10 -2 -24 2 -32 8 -8 7 -22 9 -31 6 -15 -6 -15 -8
1 -26 21 -23 84 -27 103 -8 29 29 2 68 -47 68 -12 0 -21 5 -21 10 0 6 17 8 43
4 l42 -5 -24 20 c-25 23 -56 26 -83 10z"/>
<path d="M7187 769 c-27 -16 -39 -56 -26 -82 17 -32 26 -35 86 -35 l53 1 0 58
c0 58 -1 59 -27 58 -16 0 -37 2 -48 5 -11 3 -28 1 -38 -5z m69 -44 c7 -18 -13
-45 -33 -45 -17 0 -27 24 -19 45 7 20 45 19 52 0z"/>
<path d="M7356 759 c-66 -52 9 -139 85 -99 21 12 26 40 6 40 -7 0 -18 -5 -24
-11 -18 -18 -43 -3 -43 25 0 25 25 43 35 26 4 -6 17 -10 30 -10 31 0 24 23
-11 39 -35 16 -47 14 -78 -10z"/>
<path d="M7497 773 c-10 -9 -8 -68 2 -97 9 -22 15 -24 65 -24 l56 1 0 63 c0
57 -2 64 -20 64 -16 0 -20 -7 -20 -34 0 -43 -9 -66 -25 -66 -16 0 -25 23 -25
66 0 32 -16 45 -33 27z"/>
<path d="M7671 761 c-25 -25 -27 -58 -6 -88 13 -18 25 -22 75 -22 l60 1 0 59
c0 55 -1 59 -24 59 -13 0 -37 3 -54 6 -22 5 -35 1 -51 -15z m79 -46 c0 -31
-26 -43 -46 -23 -20 20 -7 48 22 48 19 0 24 -5 24 -25z"/>
<path d="M7848 769 c-10 -5 -18 -19 -18 -30 0 -11 8 -22 18 -25 45 -14 66 -27
54 -31 -8 -3 -25 0 -38 8 -28 15 -43 5 -28 -19 13 -21 79 -28 100 -11 32 27 5
69 -45 69 -12 0 -21 5 -21 10 0 6 17 8 43 4 l42 -5 -24 20 c-25 23 -56 26 -83
10z"/>
<path d="M8147 760 c-51 -40 -22 -110 46 -110 30 0 67 24 67 43 0 11 -38 8
-45 -3 -10 -16 -45 -12 -45 5 0 11 12 15 45 15 37 0 45 3 45 19 0 44 -71 64
-113 31z m68 -20 c4 -6 -5 -10 -19 -10 -14 0 -26 5 -26 10 0 6 9 10 19 10 11
0 23 -4 26 -10z"/>
<path d="M8278 775 c-3 -4 5 -34 19 -67 24 -59 24 -71 8 -111 -6 -15 -4 -18
15 -15 18 2 29 19 56 88 38 99 40 113 17 108 -10 -2 -25 -22 -34 -47 l-16 -45
-15 45 c-13 40 -35 59 -50 44z"/>
<path d="M8615 773 c-11 -3 -27 -12 -36 -19 -14 -13 -17 -13 -22 1 -4 8 -18
15 -33 15 -25 0 -26 -1 -12 -17 28 -33 28 -41 2 -72 l-26 -31 26 0 c14 0 31 9
40 21 l14 21 14 -21 c7 -12 23 -21 37 -21 23 0 23 1 7 23 -28 38 -29 46 -7 73
l21 26 11 -28 c35 -89 38 -105 29 -130 -13 -34 -13 -34 9 -34 15 0 26 18 49
78 46 122 46 122 23 122 -15 0 -23 -10 -32 -40 -7 -22 -15 -40 -19 -40 -4 0
-12 18 -19 40 -12 41 -23 46 -76 33z"/>
<path d="M8790 760 c0 -16 7 -20 31 -20 l30 0 -24 -32 c-43 -59 -44 -58 27
-58 52 0 66 3 66 15 0 10 -10 15 -30 15 -36 0 -37 5 -5 52 14 20 25 39 25 42
0 4 -27 6 -60 6 -53 0 -60 -2 -60 -20z"/>
<path d="M6791 691 c-17 -11 -7 -41 13 -41 22 0 30 20 15 36 -9 8 -19 10 -28
5z"/>
<path d="M8440 690 c-18 -11 -4 -42 17 -38 10 2 19 10 21 19 4 19 -19 31 -38
19z"/>
</g>
</svg>
